<svg xmlns="http://www.w3.org/2000/svg" viewBox="0 0 1200 600" font-family="Segoe UI Variable, Segoe UI, system-ui, sans-serif" width="1200" height="600">
  <defs>
    <linearGradient id="bg" x1="0" y1="0" x2="1" y2="1">
      <stop offset="0" stop-color="#2E3BA8"/>
      <stop offset="0.5" stop-color="#5A4EB5"/>
      <stop offset="1" stop-color="#A25FA6"/>
    </linearGradient>
    <radialGradient id="bloom" cx="0.75" cy="0.25" r="0.7">
      <stop offset="0" stop-color="#FFB3D9" stop-opacity="0.35"/>
      <stop offset="1" stop-color="#FFB3D9" stop-opacity="0"/>
    </radialGradient>
    <filter id="panelShadow" x="-20%" y="-20%" width="140%" height="140%">
      <feGaussianBlur in="SourceAlpha" stdDeviation="10"/>
      <feOffset dx="0" dy="6"/>
      <feComponentTransfer><feFuncA type="linear" slope="0.55"/></feComponentTransfer>
      <feMerge><feMergeNode/><feMergeNode in="SourceGraphic"/></feMerge>
    </filter>
    <clipPath id="panelClip">
      <rect x="0" y="0" width="400" height="440" rx="12" ry="12"/>
    </clipPath>

    <!-- Plugin brand icons (from plugins/*/icon.svg) -->
    <symbol id="icon-codex" viewBox="0 0 100 100">
      <path d="M83.7733 42.8087C84.6678 40.1149 84.9771 37.2613 84.6807 34.4385C84.3843 31.6156 83.489 28.8885 82.0544 26.4394C77.6908 18.8436 68.9203 14.9365 60.3548 16.7725C57.9831 14.1344 54.9591 12.1668 51.5864 11.0673C48.2137 9.96772 44.611 9.77498 41.1402 10.5084C37.6694 11.2418 34.4527 12.8755 31.8132 15.2455C29.1736 17.6155 27.204 20.6383 26.1024 24.0103C23.3212 24.5806 20.6938 25.738 18.3958 27.405C16.0977 29.0721 14.1819 31.2104 12.7765 33.6772C8.36538 41.2609 9.3669 50.8267 15.2527 57.3327C14.3549 60.0251 14.0424 62.8782 14.3361 65.7012C14.6298 68.5241 15.523 71.2518 16.9558 73.7017C21.325 81.3002 30.1011 85.207 38.6712 83.3686C40.5554 85.4904 42.8707 87.1858 45.4623 88.3416C48.0539 89.4975 50.8622 90.0871 53.6999 90.0713C62.4793 90.079 70.2575 84.4114 72.9393 76.0515C75.7201 75.4802 78.347 74.3225 80.6449 72.6555C82.9427 70.9886 84.8587 68.8507 86.2649 66.3846C90.6227 58.8145 89.6172 49.3005 83.7733 42.8087ZM53.6999 84.8356C50.1955 84.8411 46.801 83.6129 44.1116 81.3661L44.5848 81.098L60.5123 71.9043C60.9087 71.6718 61.2379 71.3402 61.4674 70.942C61.6969 70.5439 61.8189 70.0929 61.8215 69.6333V47.1769L68.5553 51.072C68.6225 51.1063 68.6694 51.1707 68.6814 51.2456V69.854C68.6641 78.1208 61.9667 84.8183 53.6999 84.8356ZM21.4977 71.0843C19.7402 68.0497 19.1092 64.4925 19.7156 61.0386L20.1885 61.3225L36.1321 70.5165C36.5266 70.748 36.9757 70.87 37.4331 70.87C37.8905 70.87 38.3396 70.748 38.7341 70.5165L58.21 59.2883V67.0628C58.2081 67.1031 58.1973 67.1424 58.1782 67.1779C58.1591 67.2134 58.1322 67.2441 58.0996 67.2678L41.9671 76.5722C34.798 80.7022 25.6388 78.2463 21.4977 71.0843ZM17.3026 36.3898C19.0723 33.3357 21.8655 31.0062 25.1878 29.8138V48.7376C25.1818 49.1949 25.2986 49.6453 25.5261 50.042C25.7535 50.4387 26.0833 50.7671 26.4809 50.9928L45.8622 62.1739L39.1283 66.069C39.0919 66.0883 39.0513 66.0984 39.0101 66.0984C38.9689 66.0984 38.9283 66.0883 38.8919 66.069L22.7908 56.7809C15.6359 52.6337 13.1822 43.4816 17.3026 36.3112V36.3898ZM72.624 49.2426L53.1792 37.9512L59.8976 34.0718C59.9341 34.0524 59.9747 34.0423 60.016 34.0423C60.0573 34.0423 60.0979 34.0524 60.1344 34.0718L76.2355 43.3761C78.6973 44.7966 80.7043 46.8882 82.0221 49.4065C83.3398 51.9249 83.914 54.7661 83.6775 57.5985C83.4411 60.431 82.4038 63.1377 80.6867 65.4027C78.9696 67.6677 76.6436 69.3975 73.9803 70.3901V51.466C73.9663 51.0096 73.834 50.5647 73.5962 50.1749C73.3584 49.7851 73.0234 49.4638 72.624 49.2426ZM79.3261 39.1657L78.8529 38.8815L62.9411 29.6089C62.5442 29.376 62.0924 29.2532 61.6322 29.2532C61.172 29.2532 60.7202 29.376 60.3233 29.6089L40.8629 40.8374V33.0628C40.8587 33.0233 40.8654 32.9834 40.882 32.9473C40.8987 32.9113 40.9248 32.8803 40.9575 32.8579L57.0586 23.5692C59.5263 22.1476 62.3478 21.458 65.193 21.5811C68.0382 21.7042 70.7896 22.6348 73.1253 24.2642C75.461 25.8936 77.2845 28.1543 78.3825 30.782C79.4806 33.4097 79.8077 36.2957 79.3257 39.1025V39.1657H79.3261ZM37.1888 52.9484L30.455 49.069C30.4213 49.0487 30.3925 49.0212 30.3707 48.9884C30.3488 48.9557 30.3345 48.9186 30.3286 48.8797V30.3188C30.3323 27.4714 31.1466 24.6839 32.6761 22.2822C34.2057 19.8805 36.3874 17.9639 38.9661 16.7564C41.5448 15.549 44.4139 15.1005 47.2381 15.4636C50.0622 15.8267 52.7247 16.9862 54.9141 18.8067L54.4409 19.0748L38.5134 28.2686C38.117 28.5011 37.7879 28.8327 37.5584 29.2308C37.329 29.629 37.207 30.0799 37.2045 30.5395L37.1888 52.9487V52.9484ZM40.8472 45.0632L49.5209 40.0643L58.21 45.0635V55.0615L49.5523 60.0608L40.8632 55.0615L40.8472 45.0632Z" fill="currentColor"/>
    </symbol>
    <symbol id="icon-claude" viewBox="0 0 100 100">
      <path d="M25.7146 63.2153L41.4393 54.3917L41.7025 53.6226L41.4393 53.1976H40.6705L38.0394 53.0359L29.054 52.7929L21.2624 52.4691L13.7134 52.0644L11.8111 51.6594L10.0303 49.3118L10.2123 48.138L11.8111 47.0657L14.0981 47.2681L19.1574 47.6119L26.7467 48.138L32.2516 48.4618L40.4073 49.3118H41.7025L41.8846 48.7857L41.4393 48.4618L41.0955 48.138L33.243 42.8155L24.7432 37.1894L20.2909 33.9513L17.8824 32.3119L16.6684 30.774L16.1422 27.4147L18.328 25.0062L21.2624 25.2088L22.0112 25.4112L24.9861 27.6979L31.3407 32.616L39.6381 38.7273L40.8525 39.7391L41.3381 39.395L41.399 39.1523L40.8525 38.2415L36.3394 30.0858L31.5227 21.7883L29.3775 18.3478L28.811 16.2837C28.6087 15.4334 28.4669 14.7252 28.4669 13.8549L30.9563 10.4753L32.3321 10.0303L35.6515 10.4756L37.0479 11.6897L39.112 16.4052L42.4513 23.8327L47.6321 33.9313L49.15 36.9265L49.9594 39.6991L50.2632 40.5491H50.7894V40.0632L51.2141 34.3766L52.0035 27.3944L52.7726 18.4087L53.0358 15.8793L54.2905 12.8435L56.7795 11.2041L58.7224 12.135L60.3212 14.422L60.0986 15.899L59.1474 22.0718L57.2857 31.7458L56.0713 38.2218H56.7795L57.5892 37.4121L60.8677 33.061L66.3723 26.18L68.801 23.448L71.6342 20.4325L73.4556 18.9957H76.8962L79.4255 22.7601L78.2926 26.6456L74.7509 31.1384L71.8163 34.943L67.607 40.6097L64.9758 45.1431L65.2188 45.5072L65.8464 45.4466L75.358 43.4228L80.4984 42.4917L86.6304 41.4393L89.4033 42.7346L89.7065 44.0502L88.6135 46.7419L82.0566 48.3607L74.3662 49.8989L62.9118 52.6109L62.77 52.7121L62.9321 52.9144L68.0925 53.4L70.2987 53.5214H75.7021L85.7601 54.2702L88.3912 56.0108L89.9697 58.1358L89.7065 59.7545L85.6589 61.8189L80.1949 60.5236L67.4452 57.4881L63.0735 56.3952H62.4665V56.7596L66.1093 60.3213L72.7877 66.3523L81.1461 74.1236L81.5707 76.0462L80.4984 77.5638L79.3649 77.4021L72.0186 71.8772L69.1854 69.3879L62.77 63.9844H62.3453V64.5509L63.8223 66.7164L71.6342 78.4544L72.0389 82.0567L71.4725 83.2308L69.4487 83.939L67.2222 83.534L62.6485 77.1189L57.9333 69.8937L54.1284 63.4177L53.6631 63.6809L51.4167 87.8651L50.3644 89.0995L47.9356 90.0303L45.9121 88.4924L44.8392 86.0031L45.9118 81.0852L47.2071 74.6701L48.2594 69.5699L49.2106 63.2356L49.7773 61.131L49.7367 60.9892L49.2715 61.0498L44.4954 67.607L37.23 77.4224L31.4825 83.5746L30.1063 84.1211L27.7181 82.8864L27.9408 80.6805L29.2763 78.7177L37.2297 68.5988L42.026 62.3248L45.1227 58.7025L45.1024 58.176H44.9204L23.7917 71.8975L20.0274 72.3831L18.4083 70.8655L18.6106 68.3761L19.3798 67.5664L25.7343 63.195L25.7146 63.2153Z" fill="currentColor"/>
    </symbol>
    <symbol id="icon-copilot" viewBox="0 0 100 100">
      <path d="M79.7057 21.6044C85.0857 27.2967 87.3915 35.1429 88.3522 46.0659C90.8885 46.0659 93.2711 46.6428 94.8851 48.8352L97.8826 52.9121C98.728 54.0659 99.1892 55.4505 99.1892 56.9121V67.9505C99.1833 68.6605 99.0137 69.3596 98.6938 69.9934C98.3739 70.6271 97.9122 71.1784 97.3446 71.6044C83.7791 81.5275 67.0241 89.5275 50 89.5275C31.1698 89.5275 12.2627 78.6428 2.65542 71.6044C2.08785 71.1784 1.62614 70.6271 1.30621 69.9934C0.986278 69.3596 0.816752 68.6605 0.810822 67.9505L0.810822 56.9121C0.810822 55.4505 1.27197 54.0659 2.11741 52.8736L5.11488 48.8352C6.7289 46.6428 9.1115 46.0659 11.6478 46.0659C12.6085 35.1429 14.8759 27.2967 20.2944 21.6044C30.5165 10.7582 44.0819 9.52747 49.8463 9.52747H50C55.6491 9.52747 69.3683 10.6429 79.7057 21.6044ZM50 39.7967C48.8471 39.7967 47.5021 39.8736 46.0418 40.0275C45.678 41.7486 44.8848 43.3496 43.7361 44.6813C42.1163 46.2842 40.1962 47.5511 38.0858 48.4092C35.9755 49.2672 33.7165 49.6995 31.4388 49.6813C28.8256 49.6813 26.0971 49.1044 23.8683 47.6813C21.7547 48.4121 19.7179 49.4121 19.5642 51.9121C19.3721 56.6044 19.3336 61.3352 19.3336 66.0659C19.3336 68.4121 19.3336 70.7967 19.2568 73.1813C19.2568 74.5659 20.1022 75.8352 21.3704 76.4121C31.5156 81.0275 41.1613 83.3736 50 83.3736C58.8387 83.3736 68.446 81.0659 78.6297 76.4121C79.2511 76.1286 79.7794 75.6746 80.1535 75.1028C80.5276 74.531 80.7321 73.8647 80.7432 73.1813C80.8585 66.1044 80.7432 58.9505 80.4358 51.9121C80.2821 49.3736 78.2454 48.4121 76.1318 47.6813C73.9029 49.1044 71.136 49.6429 68.5612 49.6429C66.2861 49.6662 64.0288 49.2399 61.9186 48.3885C59.8084 47.5371 57.8868 46.2773 56.2639 44.6813C55.1153 43.3496 54.322 41.7486 53.9582 40.0275C52.6516 39.8736 51.3066 39.8352 50 39.7967ZM39.6242 56.7198C41.853 56.7198 43.6592 58.489 43.6592 60.7198V68.1044C43.6592 69.1653 43.2381 70.1827 42.4886 70.9328C41.7391 71.683 40.7226 72.1044 39.6626 72.1044C38.6026 72.1044 37.5861 71.683 36.8366 70.9328C36.087 70.1827 35.666 69.1653 35.666 68.1044V60.6813C35.666 58.4505 37.4337 56.6813 39.6626 56.6813L39.6242 56.7198ZM60.1453 56.7198C62.3742 56.7198 64.1419 58.489 64.1419 60.7198V68.1044C64.1419 69.1653 63.7208 70.1827 62.9713 70.9328C62.2218 71.683 61.2052 72.1044 60.1453 72.1044C59.0853 72.1044 58.0688 71.683 57.3192 70.9328C56.5697 70.1827 56.1487 69.1653 56.1487 68.1044V60.6813C56.1487 58.4505 57.9548 56.6813 60.1453 56.6813V56.7198ZM32.0921 20.4121C27.788 20.8352 24.1757 22.2582 22.3311 24.2582C18.3345 28.6044 19.1799 39.6813 21.4857 42.0275C23.7655 43.9275 26.6682 44.9142 29.6326 44.7967C32.2458 44.7967 37.1647 44.2198 41.1998 40.1044C43.0059 38.3736 44.0819 34.0659 43.9666 29.7198C43.8514 26.2198 42.8522 23.2967 41.3919 22.0659C39.7779 20.6813 36.1655 20.0659 32.0921 20.4121ZM58.6081 22.0659C57.1478 23.2967 56.1487 26.2198 56.0334 29.7198C55.9181 34.0659 56.9941 38.3736 58.8003 40.1044C60.3121 41.6165 62.111 42.8106 64.0909 43.6164C66.0708 44.4223 68.1918 44.8236 70.329 44.7967C73.7492 44.7967 76.8619 43.6813 78.5144 42.0275C80.8201 39.6813 81.6655 28.6044 77.6689 24.2198C75.8243 22.2967 72.212 20.8352 67.9079 20.4121C63.8345 20.0275 60.2221 20.6813 58.6081 22.0659ZM50 31.0659C49.0009 31.0659 47.848 31.1429 46.5414 31.2582C46.6951 31.9121 46.7335 32.6813 46.8104 33.4505C46.8104 34.0275 46.8104 34.6044 46.7335 35.1813C47.9633 35.0659 49.0393 35.0659 50 35.0659C50.9992 35.0659 52.0367 35.0659 53.2665 35.1813C53.1896 34.5659 53.1896 34.0275 53.1896 33.4505C53.2665 32.6813 53.3049 31.9121 53.4586 31.2582C52.152 31.1429 50.9992 31.0659 50 31.0659Z" fill="currentColor"/>
    </symbol>
    <symbol id="icon-cursor" viewBox="0 0 100 100">
      <path d="M84.0704 28.9353L51.9066 10.4454C50.8738 9.85153 49.5994 9.85153 48.5666 10.4454L16.4043 28.9353C15.536 29.4345 15 30.3576 15 31.3575V68.6425C15 69.6424 15.536 70.5655 16.4043 71.0647L48.5681 89.5546C49.6009 90.1485 50.8753 90.1485 51.9081 89.5546L84.0719 71.0647C84.9402 70.5655 85.4762 69.6424 85.4762 68.6425V31.3575C85.4762 30.3576 84.9402 29.4345 84.0719 28.9353H84.0704ZM82.0501 32.8519L51.0006 86.4003C50.7907 86.7611 50.2366 86.6138 50.2366 86.1958V51.1329C50.2366 50.4322 49.8606 49.7842 49.2506 49.4324L18.7553 31.9017C18.3929 31.6927 18.5409 31.141 18.9606 31.141H81.0595C81.9414 31.141 82.4925 32.0927 82.0516 32.8534H82.0501V32.8519Z" fill="currentColor"/>
    </symbol>
  </defs>

  <!-- Wallpaper -->
  <rect width="1200" height="600" fill="url(#bg)"/>
  <rect width="1200" height="600" fill="url(#bloom)"/>

  <!-- ========== Windows 11 taskbar ========== -->
  <g>
    <rect x="0" y="556" width="1200" height="44" fill="#1A1A1A" fill-opacity="0.82"/>

    <!-- Centered pinned apps -->
    <g transform="translate(540, 568)">
      <!-- Start (Windows logo, 4 panes) -->
      <g transform="translate(0,3)" fill="#fff">
        <rect x="0"  y="0"  width="9.5" height="9.5"/>
        <rect x="11" y="0"  width="9.5" height="9.5"/>
        <rect x="0"  y="11" width="9.5" height="9.5"/>
        <rect x="11" y="11" width="9.5" height="9.5"/>
      </g>
      <!-- Search (magnifier) -->
      <g transform="translate(38,4)" fill="none" stroke="#fff" stroke-width="1.6" stroke-linecap="round">
        <circle cx="7" cy="7" r="5.5"/>
        <line x1="11" y1="11" x2="15" y2="15"/>
      </g>
      <!-- Task view -->
      <g transform="translate(72,4)" fill="none" stroke="#fff" stroke-width="1.4">
        <rect x="0" y="0" width="7" height="7" rx="1"/>
        <rect x="9" y="0" width="7" height="7" rx="1"/>
        <rect x="0" y="9" width="7" height="7" rx="1"/>
        <rect x="9" y="9" width="7" height="7" rx="1"/>
      </g>
      <!-- File Explorer -->
      <g transform="translate(104,4)">
        <path d="M0 4 h6 l2 2 h12 v11 H0 Z" fill="#FFC875" stroke="#D4A04E" stroke-width="0.8"/>
      </g>
      <!-- Edge -->
      <circle cx="140" cy="12" r="9" fill="#0E86D4"/>
      <path d="M133 12 Q140 4, 148 10 Q143 11, 140 14 Q138 18, 143 20 Q137 21, 133 16 Z" fill="#fff" opacity="0.85"/>
      <!-- Terminal -->
      <rect x="160" y="3" width="20" height="18" rx="2" fill="#2A2A2C" stroke="#444" stroke-width="0.5"/>
      <text x="163" y="16" font-size="9" fill="#7EE787" font-family="Consolas, monospace">&gt;_</text>
      <!-- VS Code -->
      <path d="M196 12 l-7 -7 l14 -2 v20 l-14 -2 l7 -7 Z M189 5 l4 7 l-4 7" fill="#2B8EE1"/>
    </g>

    <!-- ========== System tray (right side) ========== -->
    <!-- Win11 order (left-to-right): hidden chevron ^ → visible app icons → system (wifi/vol/battery) → time/date -->

    <!-- Hidden-icons chevron -->
    <g transform="translate(985, 572)" fill="none" stroke="#fff" stroke-width="1.6" stroke-linecap="round" stroke-linejoin="round">
      <path d="M0 7 L6 1 L12 7"/>
    </g>

    <!-- OpenUsage visible tray icon (shows "72%" left, Default DisplayMode) -->
    <g transform="translate(1010, 564)">
      <rect x="0" y="0" width="30" height="24" rx="4" fill="#ffffff" fill-opacity="0.08"/>
      <rect x="5" y="4" width="20" height="16" rx="3" fill="#1C1C1E"/>
      <text x="15" y="15" text-anchor="middle" font-size="10" font-weight="700" fill="#BFFF00" font-family="Consolas, monospace">72</text>
    </g>

    <!-- System icons (wifi + volume + battery) grouped -->
    <g transform="translate(1052, 568)">
      <!-- WiFi -->
      <g fill="#fff">
        <path d="M0 10 Q8 1 16 10 L14 12 Q8 5 2 12 Z"/>
        <path d="M3 13 Q8 8 13 13 L11 15 Q8 12 5 15 Z"/>
        <circle cx="8" cy="16" r="1.6"/>
      </g>
      <!-- Volume -->
      <g transform="translate(24,2)" fill="#fff">
        <path d="M0 6 h3 l5 -4 v14 l-5 -4 h-3 Z"/>
        <path d="M10 5 Q13 8 10 12" fill="none" stroke="#fff" stroke-width="1.4" stroke-linecap="round"/>
        <path d="M12 3 Q17 8 12 14" fill="none" stroke="#fff" stroke-width="1.4" stroke-linecap="round"/>
      </g>
      <!-- Battery -->
      <g transform="translate(46,4)">
        <rect x="0" y="0" width="20" height="10" rx="1.4" fill="none" stroke="#fff" stroke-width="1.2"/>
        <rect x="2" y="2" width="14" height="6" fill="#fff"/>
        <line x1="21" y1="3" x2="21" y2="7" stroke="#fff" stroke-width="1.2" stroke-linecap="round"/>
      </g>
    </g>

    <!-- Clock -->
    <g transform="translate(1135, 568)" fill="#fff">
      <text font-size="11" y="10">2:46 PM</text>
      <text font-size="10" y="22" opacity="0.9">4/17/2026</text>
    </g>
  </g>

  <!-- ========== Panel ========== -->
  <g transform="translate(490, 70)" filter="url(#panelShadow)">
    <g clip-path="url(#panelClip)">
      <rect width="400" height="440" fill="#1C1C1E"/>
      <rect width="48"  height="440" fill="#2A2A2C"/>
      <line x1="48" y1="0" x2="48" y2="440" stroke="#202020"/>

      <!-- Pin -->
      <g transform="translate(24, 22)" fill="#888">
        <path d="M-1 -7 L1 -7 L1 -2 L5 2 L-5 2 L-1 -2 Z"/>
        <line x1="0" y1="2" x2="0" y2="8" stroke="#888" stroke-width="1.4" stroke-linecap="round"/>
      </g>

      <!-- Home / Gauge -->
      <g transform="translate(24, 62)" fill="none" stroke="#888" stroke-width="1.7" stroke-linecap="round">
        <path d="M-8 4 A 8 8 0 0 1 8 4"/>
        <line x1="0" y1="2" x2="4" y2="-2"/>
        <circle cx="0" cy="2" r="1.3" fill="#888" stroke="none"/>
      </g>

      <!-- Plugin: Codex (selected) -->
      <rect x="6" y="84" width="36" height="36" rx="8" fill="#252527"/>
      <circle cx="24" cy="102" r="13" fill="#74AA9C"/>
      <use href="#icon-codex" x="14" y="92" width="20" height="20" color="#fff"/>

      <!-- Plugin: Claude -->
      <circle cx="24" cy="138" r="13" fill="#DE7356"/>
      <use href="#icon-claude" x="14" y="128" width="20" height="20" color="#fff"/>

      <!-- Plugin: Copilot -->
      <circle cx="24" cy="174" r="13" fill="#A855F7"/>
      <use href="#icon-copilot" x="14" y="164" width="20" height="20" color="#fff"/>

      <!-- Plugin: Cursor -->
      <circle cx="24" cy="210" r="13" fill="#000"/>
      <use href="#icon-cursor" x="14" y="200" width="20" height="20" color="#fff"/>

      <!-- Settings (gear) -->
      <g transform="translate(24, 408)" fill="none" stroke="#888" stroke-width="1.5">
        <circle cx="0" cy="0" r="3.2"/>
        <path d="M0 -8 v3 M0 8 v-3 M-8 0 h3 M8 0 h-3 M-5.6 -5.6 l2.1 2.1 M5.6 5.6 l-2.1 -2.1 M-5.6 5.6 l2.1 -2.1 M5.6 -5.6 l-2.1 2.1" stroke-linecap="round"/>
      </g>

      <!-- ===== Content: Codex detail ===== -->
      <g transform="translate(48, 0)">
        <!-- Header: back + Codex + Pro badge -->
        <g transform="translate(14, 28)">
          <path d="M6 -5 L-2 3 L6 11" fill="none" stroke="#EDEDED" stroke-width="1.6" stroke-linecap="round" stroke-linejoin="round"/>
          <text x="22" y="7" font-size="16" font-weight="600" fill="#EDEDED">Codex</text>
          <g transform="translate(290, -7)">
            <rect width="34" height="18" rx="9" fill="none" stroke="#888" stroke-width="1"/>
            <text x="17" y="12" text-anchor="middle" font-size="10" fill="#888">Pro</text>
          </g>
        </g>

        <!-- Session -->
        <g transform="translate(14, 70)">
          <text font-size="12" fill="#888">Session</text>
          <circle cx="52" cy="-3" r="3" fill="#4ADE80"/>
          <rect x="0" y="12" width="324" height="14" rx="7" fill="#353537"/>
          <rect x="0" y="12" width="7"   height="14" rx="7" fill="#EDEDED"/>
          <text x="0"   y="42" font-size="11" fill="#888" font-family="Consolas, Menlo, monospace">0%</text>
          <text x="324" y="42" text-anchor="end" font-size="11" fill="#888">Resets in 3h 12m</text>
        </g>

        <!-- Weekly -->
        <g transform="translate(14, 130)">
          <text font-size="12" fill="#888">Weekly</text>
          <circle cx="50" cy="-3" r="3" fill="#4ADE80"/>
          <rect x="0" y="12" width="324" height="14" rx="7" fill="#353537"/>
          <rect x="0" y="12" width="91"  height="14" rx="7" fill="#EDEDED"/>
          <text x="0"   y="42" font-size="11" fill="#888" font-family="Consolas, Menlo, monospace">28%</text>
          <text x="324" y="42" text-anchor="end" font-size="11" fill="#888">Resets in 1d 22h</text>
        </g>

        <!-- Reviews -->
        <g transform="translate(14, 190)">
          <text font-size="12" fill="#888">Reviews</text>
          <circle cx="54" cy="-3" r="3" fill="#4ADE80"/>
          <rect x="0" y="12" width="324" height="14" rx="7" fill="#353537"/>
          <rect x="0" y="12" width="65"  height="14" rx="7" fill="#EDEDED"/>
          <text x="0"   y="42" font-size="11" fill="#888" font-family="Consolas, Menlo, monospace">20%</text>
          <text x="324" y="42" text-anchor="end" font-size="11" fill="#888">Resets in 3d 16h</text>
        </g>

        <!-- Credits -->
        <g transform="translate(14, 252)">
          <text font-size="12" fill="#888">Credits</text>
          <text x="324" y="0" text-anchor="end" font-size="12" fill="#EDEDED">327.19</text>
        </g>

        <!-- Today -->
        <g transform="translate(14, 276)">
          <text font-size="12" fill="#888">Today</text>
          <text x="324" y="0" text-anchor="end" font-size="12" fill="#EDEDED">$4.21</text>
        </g>

        <!-- Yesterday -->
        <g transform="translate(14, 300)">
          <text font-size="12" fill="#888">Yesterday</text>
          <text x="324" y="0" text-anchor="end" font-size="12" fill="#EDEDED">$6.78</text>
        </g>
      </g>

      <!-- Footer -->
      <g transform="translate(48, 404)">
        <line x1="0" y1="0" x2="352" y2="0" stroke="#202020"/>
        <text x="12"  y="22" font-size="11" fill="#888">OpenUsage v1.0.0</text>
        <text x="340" y="22" text-anchor="end" font-size="11" fill="#888">Next update in 13m</text>
      </g>
    </g>
  </g>

  <!-- ========== Left side tagline ========== -->
  <g transform="translate(60, 150)" fill="#fff" font-weight="800" letter-spacing="-1">
    <text font-size="52">
      <tspan x="0" y="0">Super</tspan>
      <tspan x="0" y="58">Simple</tspan>
      <tspan x="0" y="116">Subscription</tspan>
      <tspan x="0" y="174">Management</tspan>
    </text>
  </g>

  <!-- Arrow: tail at the panel (right edge), head at the tray icon -->
  <g fill="none" stroke="#fff" stroke-width="3" stroke-linecap="round" stroke-linejoin="round">
    <path d="M910 330 Q 990 400, 1030 540"/>
  </g>
  <path d="M1022 538 L 1032 556 L 1040 538 Z" fill="#fff"/>
</svg>
